# xmcd CD database file
# Copyright (C) 1993-1996 Ti Kan
#
# Track frame offsets:
# 150
# 14442
# 26195
# 35172
# 46197
# 57847
# 71037
# 82215
# 91012
# 101027
# 112632
# 125630
# 136370
# 147315
# 160867
# 172652
# 187635
# 199450
# 211080
# 222992
# 235497
# 245475
# 256902
# 275690
# 289632
# 298967
# 312162
# 323180
# 340265
#
# Disc length: 4726 seconds
#
# Revision: 0
# Processed by: cddbd v1.4b41PL1 Copyright (c) Steve Scherf et al.
# Submitted via: inCDius 1.1b5
#
DISCID=b712741d
DTITLE=George Hamilton 4th - To You And Yours,From Me And Mine Disc2
DYEAR=1900
DGENRE=
TTITLE0=I've Got A secret
TTITLE1=Sam
TTITLE2=A Rose And A Baby Ruth
TTITLE3=If You Don't Know, I Ain't Gonna Tell You
TTITLE4=If I Possessed A Printing Press
TTITLE5=Only One Love
TTITLE6=Everbody's Body
TTITLE7=High School Romance
TTITLE8=Everybody's Body
TTITLE9=Why Don't They Understand
TTITLE10=Little Tom
TTITLE11=Even Tho'
TTITLE12=You Tell Me Your Dream
TTITLE13=Carolina Moon
TTITLE14=Let Me  Call You Sweetheart
TTITLE15=WhenI Grow Too Old To Dream
TTITLE16=Tell Me Why
TTITLE17=Aura Lee
TTITLE18=Girl Of My Dreams
TTITLE19=Drink To Me Only With Thine Eyes
TTITLE20=Love's Old Sweet Song
TTITLE21=AuldLang Syne
TTITLE22=Ivy Rose
TTITLE23=Clementine
TTITLE24=One Heart
TTITLE25=May I
TTITLE26=Now And For Always
TTITLE27=House Of Gold
TTITLE28=I Can't Help It
EXTD=
EXTT0=
EXTT1=
EXTT2=
EXTT3=
EXTT4=
EXTT5=
EXTT6=
EXTT7=
EXTT8=
EXTT9=
EXTT10=
EXTT11=
EXTT12=
EXTT13=
EXTT14=
EXTT15=
EXTT16=
EXTT17=
EXTT18=
EXTT19=
EXTT20=
EXTT21=
EXTT22=
EXTT23=
EXTT24=
EXTT25=
EXTT26=
EXTT27=
EXTT28=
PLAYORDER=
